<?xml version="1.0" encoding="UTF-8" ?>
<svg version="1.1" width="16" height="16" xmlns="http://www.w3.org/2000/svg" shape-rendering="crispEdges">
<rect x="2" y="1" width="1" height="1" fill="#943E2E" />
<rect x="3" y="1" width="1" height="1" fill="#943F2E" />
<rect x="4" y="1" width="1" height="1" fill="#AC4B3A" />
<rect x="5" y="1" width="1" height="1" fill="#A94B3A" />
<rect x="6" y="1" width="1" height="1" fill="#A94B3A" />
<rect x="7" y="1" width="1" height="1" fill="#A94B3A" />
<rect x="8" y="1" width="1" height="1" fill="#A94B3A" />
<rect x="9" y="1" width="1" height="1" fill="#A94B3A" />
<rect x="10" y="1" width="1" height="1" fill="#A94B3A" />
<rect x="11" y="1" width="1" height="1" fill="#B37565" />
<rect x="12" y="1" width="1" height="1" fill="#C07C6E" />
<rect x="2" y="2" width="1" height="1" fill="#933E2E" />
<rect x="3" y="2" width="1" height="1" fill="#A84C3A" />
<rect x="4" y="2" width="1" height="1" fill="#A94B3A" />
<rect x="5" y="2" width="1" height="1" fill="#9D794E" />
<rect x="6" y="2" width="1" height="1" fill="#C8AF7C" />
<rect x="7" y="2" width="1" height="1" fill="#C8AF7C" />
<rect x="8" y="2" width="1" height="1" fill="#C8AF7C" />
<rect x="9" y="2" width="1" height="1" fill="#C8AF7C" />
<rect x="10" y="2" width="1" height="1" fill="#C8AF7C" />
<rect x="11" y="2" width="1" height="1" fill="#C8AF7C" />
<rect x="12" y="2" width="1" height="1" fill="#D4C18E" />
<rect x="13" y="2" width="1" height="1" fill="#DCBF8F" />
<rect x="2" y="3" width="1" height="1" fill="#933E2E" />
<rect x="3" y="3" width="1" height="1" fill="#A94B3A" />
<rect x="4" y="3" width="1" height="1" fill="#A94B3A" />
<rect x="5" y="3" width="1" height="1" fill="#A0774E" />
<rect x="6" y="3" width="1" height="1" fill="#C8AF7C" />
<rect x="7" y="3" width="1" height="1" fill="#C8AF7C" />
<rect x="8" y="3" width="1" height="1" fill="#947B73" />
<rect x="9" y="3" width="1" height="1" fill="#0A0B05" />
<rect x="10" y="3" width="1" height="1" fill="#69574F" />
<rect x="11" y="3" width="1" height="1" fill="#C8AF7C" />
<rect x="12" y="3" width="1" height="1" fill="#D6C08E" />
<rect x="13" y="3" width="1" height="1" fill="#D4C08D" />
<rect x="2" y="4" width="1" height="1" fill="#933E2E" />
<rect x="3" y="4" width="1" height="1" fill="#A94B3A" />
<rect x="4" y="4" width="1" height="1" fill="#A94B3A" />
<rect x="5" y="4" width="1" height="1" fill="#A0774E" />
<rect x="6" y="4" width="1" height="1" fill="#C8AF7C" />
<rect x="7" y="4" width="1" height="1" fill="#977C74" />
<rect x="8" y="4" width="1" height="1" fill="#0C0B09" />
<rect x="9" y="4" width="1" height="1" fill="#372725" />
<rect x="10" y="4" width="1" height="1" fill="#0A0C0A" />
<rect x="11" y="4" width="1" height="1" fill="#685757" />
<rect x="12" y="4" width="1" height="1" fill="#C7B07C" />
<rect x="13" y="4" width="1" height="1" fill="#D4C08D" />
<rect x="2" y="5" width="1" height="1" fill="#933E2E" />
<rect x="3" y="5" width="1" height="1" fill="#A94B3A" />
<rect x="4" y="5" width="1" height="1" fill="#A94B3A" />
<rect x="5" y="5" width="1" height="1" fill="#A0774E" />
<rect x="6" y="5" width="1" height="1" fill="#C8AF7C" />
<rect x="7" y="5" width="1" height="1" fill="#0F0A06" />
<rect x="8" y="5" width="1" height="1" fill="#362724" />
<rect x="9" y="5" width="1" height="1" fill="#90766E" />
<rect x="10" y="5" width="1" height="1" fill="#362724" />
<rect x="11" y="5" width="1" height="1" fill="#9E827B" />
<rect x="12" y="5" width="1" height="1" fill="#C8AF7C" />
<rect x="13" y="5" width="1" height="1" fill="#D4C08D" />
<rect x="2" y="6" width="1" height="1" fill="#9F5C51" />
<rect x="3" y="6" width="1" height="1" fill="#A94B3A" />
<rect x="4" y="6" width="1" height="1" fill="#A94B3A" />
<rect x="5" y="6" width="1" height="1" fill="#A0774E" />
<rect x="6" y="6" width="1" height="1" fill="#C8AE7B" />
<rect x="7" y="6" width="1" height="1" fill="#977C74" />
<rect x="8" y="6" width="1" height="1" fill="#362724" />
<rect x="9" y="6" width="1" height="1" fill="#362724" />
<rect x="10" y="6" width="1" height="1" fill="#624843" />
<rect x="11" y="6" width="1" height="1" fill="#987A78" />
<rect x="12" y="6" width="1" height="1" fill="#C8AE7B" />
<rect x="13" y="6" width="1" height="1" fill="#D4C08D" />
<rect x="2" y="7" width="1" height="1" fill="#933E2E" />
<rect x="3" y="7" width="1" height="1" fill="#A94B3A" />
<rect x="4" y="7" width="1" height="1" fill="#A94B3A" />
<rect x="5" y="7" width="1" height="1" fill="#A0774E" />
<rect x="6" y="7" width="1" height="1" fill="#C8AF7C" />
<rect x="7" y="7" width="1" height="1" fill="#C8AF7C" />
<rect x="8" y="7" width="1" height="1" fill="#675854" />
<rect x="9" y="7" width="1" height="1" fill="#897772" />
<rect x="10" y="7" width="1" height="1" fill="#93796F" />
<rect x="11" y="7" width="1" height="1" fill="#C8AF7C" />
<rect x="12" y="7" width="1" height="1" fill="#D6C08C" />
<rect x="13" y="7" width="1" height="1" fill="#D4C08D" />
<rect x="2" y="8" width="1" height="1" fill="#933E2E" />
<rect x="3" y="8" width="1" height="1" fill="#A94B3A" />
<rect x="4" y="8" width="1" height="1" fill="#A94B3A" />
<rect x="5" y="8" width="1" height="1" fill="#A0774E" />
<rect x="6" y="8" width="1" height="1" fill="#C8AF7C" />
<rect x="7" y="8" width="1" height="1" fill="#C8AF7C" />
<rect x="8" y="8" width="1" height="1" fill="#C8AF7C" />
<rect x="9" y="8" width="1" height="1" fill="#C8AF7C" />
<rect x="10" y="8" width="1" height="1" fill="#C8AF7C" />
<rect x="11" y="8" width="1" height="1" fill="#C8AF7C" />
<rect x="12" y="8" width="1" height="1" fill="#D4C18E" />
<rect x="13" y="8" width="1" height="1" fill="#D4C08D" />
<rect x="2" y="9" width="1" height="1" fill="#933E2E" />
<rect x="3" y="9" width="1" height="1" fill="#A94B3A" />
<rect x="4" y="9" width="1" height="1" fill="#A94B3A" />
<rect x="5" y="9" width="1" height="1" fill="#A0774E" />
<rect x="6" y="9" width="1" height="1" fill="#D2C09A" />
<rect x="7" y="9" width="1" height="1" fill="#C8AF7C" />
<rect x="8" y="9" width="1" height="1" fill="#C8AE9B" />
<rect x="9" y="9" width="1" height="1" fill="#685852" />
<rect x="10" y="9" width="1" height="1" fill="#CAAF7A" />
<rect x="11" y="9" width="1" height="1" fill="#C8AF7C" />
<rect x="12" y="9" width="1" height="1" fill="#D4C18E" />
<rect x="13" y="9" width="1" height="1" fill="#D4C08D" />
<rect x="2" y="10" width="1" height="1" fill="#933E2E" />
<rect x="3" y="10" width="1" height="1" fill="#A94B3A" />
<rect x="4" y="10" width="1" height="1" fill="#A94B3A" />
<rect x="5" y="10" width="1" height="1" fill="#A0774E" />
<rect x="6" y="10" width="1" height="1" fill="#C8AF7C" />
<rect x="7" y="10" width="1" height="1" fill="#BDA39B" />
<rect x="8" y="10" width="1" height="1" fill="#0C0B09" />
<rect x="9" y="10" width="1" height="1" fill="#0F090C" />
<rect x="10" y="10" width="1" height="1" fill="#0C0B09" />
<rect x="11" y="10" width="1" height="1" fill="#6F5B58" />
<rect x="12" y="10" width="1" height="1" fill="#D4C18E" />
<rect x="13" y="10" width="1" height="1" fill="#D4C08D" />
<rect x="2" y="11" width="1" height="1" fill="#933E2E" />
<rect x="3" y="11" width="1" height="1" fill="#A94B3A" />
<rect x="4" y="11" width="1" height="1" fill="#A94B3A" />
<rect x="5" y="11" width="1" height="1" fill="#A0774E" />
<rect x="6" y="11" width="1" height="1" fill="#C8AF7C" />
<rect x="7" y="11" width="1" height="1" fill="#0E0703" />
<rect x="8" y="11" width="1" height="1" fill="#292320" />
<rect x="9" y="11" width="1" height="1" fill="#947971" />
<rect x="10" y="11" width="1" height="1" fill="#362724" />
<rect x="11" y="11" width="1" height="1" fill="#68584D" />
<rect x="12" y="11" width="1" height="1" fill="#D6C08E" />
<rect x="13" y="11" width="1" height="1" fill="#D4C08D" />
<rect x="2" y="12" width="1" height="1" fill="#933E2E" />
<rect x="3" y="12" width="1" height="1" fill="#A94B3A" />
<rect x="4" y="12" width="1" height="1" fill="#A94B3A" />
<rect x="5" y="12" width="1" height="1" fill="#A0774E" />
<rect x="6" y="12" width="1" height="1" fill="#C8AF7C" />
<rect x="7" y="12" width="1" height="1" fill="#977C74" />
<rect x="8" y="12" width="1" height="1" fill="#362724" />
<rect x="9" y="12" width="1" height="1" fill="#362724" />
<rect x="10" y="12" width="1" height="1" fill="#5D4743" />
<rect x="11" y="12" width="1" height="1" fill="#977C74" />
<rect x="12" y="12" width="1" height="1" fill="#D4C18E" />
<rect x="13" y="12" width="1" height="1" fill="#D4C08D" />
<rect x="3" y="13" width="1" height="1" fill="#943F2F" />
<rect x="4" y="13" width="1" height="1" fill="#A94B3A" />
<rect x="5" y="13" width="1" height="1" fill="#A0774E" />
<rect x="6" y="13" width="1" height="1" fill="#CAAE7E" />
<rect x="7" y="13" width="1" height="1" fill="#C8AF7C" />
<rect x="8" y="13" width="1" height="1" fill="#675852" />
<rect x="9" y="13" width="1" height="1" fill="#624744" />
<rect x="10" y="13" width="1" height="1" fill="#977D73" />
<rect x="11" y="13" width="1" height="1" fill="#D4C18E" />
<rect x="12" y="13" width="1" height="1" fill="#D7C296" />
<rect x="13" y="13" width="1" height="1" fill="#D4C08D" />
<rect x="4" y="14" width="1" height="1" fill="#A44735" />
<rect x="5" y="14" width="1" height="1" fill="#A0774E" />
<rect x="6" y="14" width="1" height="1" fill="#5B4642" />
<rect x="7" y="14" width="1" height="1" fill="#95796F" />
<rect x="8" y="14" width="1" height="1" fill="#C8AF7C" />
<rect x="9" y="14" width="1" height="1" fill="#D4C18E" />
<rect x="10" y="14" width="1" height="1" fill="#D4C18E" />
<rect x="11" y="14" width="1" height="1" fill="#D4C18E" />
<rect x="12" y="14" width="1" height="1" fill="#4B3A36" />
<rect x="13" y="14" width="1" height="1" fill="#DFBC8E" />
</svg>